<?xml version="1.0" encoding="utf-8"?>
<!-- Generator: Adobe Illustrator 28.0.0, SVG Export Plug-In . SVG Version: 6.00 Build 0)  -->
<svg version="1.1" xmlns="http://www.w3.org/2000/svg" xmlns:xlink="http://www.w3.org/1999/xlink" x="0px" y="0px"
	 viewBox="0 0 300 250" style="enable-background:new 0 0 300 250;" xml:space="preserve">
<style type="text/css">
	.st0{fill:#009BDB;}
	.st1{fill:url(#SVGID_1_);}
	.st2{fill:url(#SVGID_00000008845489397261908300000006493768980108884668_);}
	.st3{fill:url(#SVGID_00000096040834598809649830000005879529284966152857_);}
	.st4{fill:url(#SVGID_00000101808202604834443900000006501818589832414898_);}
	.st5{fill:url(#SVGID_00000049938064784303335880000014545295448579155094_);}
	.st6{fill:url(#SVGID_00000038385598552927540130000018022059887973168033_);}
	.st7{fill:url(#SVGID_00000054242397015147377860000004154849107433389702_);}
	.st8{fill:url(#SVGID_00000038389576315457799780000001471352233802116236_);}
	.st9{fill:url(#SVGID_00000139293547371980977670000010529975142354177940_);}
	.st10{fill:url(#SVGID_00000015333390462583469210000008004027000843454605_);}
	.st11{fill:url(#SVGID_00000006690697855671150910000003173742255990543015_);}
	.st12{fill:url(#SVGID_00000006667405187593411870000005363172000018548637_);}
	.st13{fill:url(#SVGID_00000054952196775261952100000013225926360972906935_);}
	.st14{fill:url(#SVGID_00000106831011509818825580000015197729946877293999_);}
	.st15{fill:url(#SVGID_00000078036580932890669580000017232219788724323749_);}
	.st16{fill:url(#SVGID_00000036934667129351400020000007092162248791541679_);}
	.st17{fill:url(#SVGID_00000176001136687622808090000000145678245312330889_);}
	.st18{fill:url(#SVGID_00000177460843295987027140000016617791299976344999_);}
	.st19{fill:url(#SVGID_00000028305218570724778980000017390581280866063261_);}
	.st20{fill:url(#SVGID_00000110433826132021750720000007119453235828682629_);}
	.st21{fill:url(#SVGID_00000061468982169007160890000013177024368761590193_);}
	.st22{fill:url(#SVGID_00000079462287586045676690000012637933500363840647_);}
	.st23{fill:url(#SVGID_00000011730370770373073910000011405562674073014929_);}
	.st24{fill:url(#SVGID_00000163766140243223570500000000564037335219058573_);}
	.st25{fill:url(#SVGID_00000038385527401594653140000001252911417705326979_);}
	.st26{fill:url(#SVGID_00000086667804230064096340000010838065902532909186_);}
	.st27{fill:url(#SVGID_00000024686457746792869830000004821026018332326839_);}
	.st28{fill:url(#SVGID_00000115502102812453111290000016014584857115343756_);}
	.st29{fill:url(#SVGID_00000039135268073203221080000003315523974061994137_);}
	.st30{fill:url(#SVGID_00000166656602048863429880000018144887788160697519_);}
	.st31{fill:url(#SVGID_00000039852947307707512580000005988434784337501860_);}
	.st32{fill:url(#SVGID_00000148631599155882967800000012722232319496835712_);}
	.st33{fill:url(#SVGID_00000021841230006958797070000000682336413085583764_);}
	.st34{fill:url(#SVGID_00000136387029187146845670000009008781901231143596_);}
	.st35{fill:url(#SVGID_00000054257346601283034760000011723859068827025851_);}
	.st36{fill:url(#SVGID_00000085959547930609949240000016187380200080465317_);}
	.st37{fill:url(#SVGID_00000033363810760920414150000008235231200204209560_);}
	.st38{fill:url(#SVGID_00000020396160738186133620000010185460147450274724_);}
	.st39{fill:url(#SVGID_00000067209494513153320520000014846228330847379363_);}
	.st40{fill:url(#SVGID_00000121987988970860406490000002855277596057896069_);}
	.st41{fill:url(#SVGID_00000103263720806629342370000000914635804751931784_);}
	.st42{fill:url(#SVGID_00000026879643238458427860000001374671472106642830_);}
	.st43{fill:url(#SVGID_00000146462155783943621260000018177349992954116778_);}
	.st44{fill:url(#SVGID_00000067920083940342488490000010407473572649380261_);}
	.st45{fill:url(#SVGID_00000124860813452055313000000006664786121611962499_);}
	.st46{fill:url(#SVGID_00000021083802976602834760000011565615514672122036_);}
	.st47{fill:url(#SVGID_00000067929025532142716520000011209370351048695702_);}
	.st48{fill:url(#SVGID_00000005946377670807923190000015819289061698058120_);}
	.st49{fill:url(#SVGID_00000106859846769731995440000015131329686858845858_);}
	.st50{fill:url(#SVGID_00000007412445298456261180000015900777462807995531_);}
	.st51{fill:url(#SVGID_00000170992381943375332160000009382720198764412340_);}
	.st52{fill:url(#SVGID_00000167391762810999701900000002858145132136673158_);}
	.st53{fill:url(#SVGID_00000085936168889084003390000012505398143609171845_);}
	.st54{fill:url(#SVGID_00000101073694536179819700000011137780190580281781_);}
	.st55{fill:url(#SVGID_00000012438787480107095690000012292007994636677775_);}
	.st56{fill:url(#SVGID_00000033369928156769793600000008943627312460897981_);}
	.st57{fill:url(#SVGID_00000060723328660677919890000009014676000399140799_);}
	.st58{fill:url(#SVGID_00000122718990184584628770000011297639788694585989_);}
	.st59{fill:url(#SVGID_00000081640690225044842840000016284030487765387145_);}
	.st60{fill:url(#SVGID_00000131347363258968185320000016329933412723219359_);}
	.st61{fill:url(#SVGID_00000031906842000769214060000003765375547729097392_);}
	.st62{fill:url(#SVGID_00000173870941635997988500000011709004531739692684_);}
	.st63{fill:url(#SVGID_00000072986483168705516860000013604709318235823781_);}
	.st64{fill:url(#SVGID_00000150064066862350101520000012806593763387316640_);}
	.st65{fill:url(#SVGID_00000041982314603163261620000008572232407120485279_);}
	.st66{fill:url(#SVGID_00000018942736087691135150000006806020272073223812_);}
	.st67{fill:url(#SVGID_00000079474268662736512430000005342447127705859250_);}
	.st68{fill:url(#SVGID_00000011751153980041490630000002736097340042473091_);}
	.st69{fill:url(#SVGID_00000085931370335949874470000013258655017183233680_);}
	.st70{fill:url(#SVGID_00000078742652050066304270000003341798701337735562_);}
	.st71{fill:url(#SVGID_00000015330370840531246120000014879541270414361516_);}
	.st72{fill:url(#SVGID_00000170981096227220038660000009677105078669763992_);}
	.st73{fill:url(#SVGID_00000150094208788411790400000001589077678520541313_);}
	.st74{fill:url(#SVGID_00000152232904298098074510000004103532897209191102_);}
	.st75{fill:url(#SVGID_00000137848354876670073410000014873956968921243264_);}
	.st76{fill:url(#SVGID_00000157294124594015096150000004065380699751100592_);}
	.st77{fill:url(#SVGID_00000025433567850317440660000011480402219816633239_);}
	.st78{fill:url(#SVGID_00000152954172744996878240000002174318860901937552_);}
	.st79{fill:#E6B54A;}
	.st80{fill:url(#XMLID_00000088816053791118692180000009751897217285682336_);}
	.st81{fill:url(#XMLID_00000145744860046682628050000010989947853608131242_);}
	.st82{fill:url(#XMLID_00000068657069777608835600000004061575200271372950_);}
	.st83{fill:url(#XMLID_00000017475544642607596560000002288924201097898147_);}
	.st84{fill:url(#XMLID_00000125604600070868263510000006343296758290504113_);}
	.st85{fill:url(#XMLID_00000014619696576433345670000014961769424678189990_);}
	.st86{fill:url(#XMLID_00000062912876803678549480000008236197922983915438_);}
	.st87{fill:url(#XMLID_00000178188017543701671620000018050493760237602472_);}
	.st88{fill:url(#XMLID_00000005247992448385918690000015955998367585626556_);}
	.st89{fill:url(#XMLID_00000116946166379611646500000011556769012782769545_);}
	.st90{fill:url(#XMLID_00000160192416676621208370000003494349821400341389_);}
	.st91{fill:url(#XMLID_00000179647024938991909830000007135006690369012915_);}
	.st92{fill:url(#XMLID_00000111914153871132982530000018388111033001949081_);}
	.st93{fill:url(#XMLID_00000145771641591742791470000017658673289243870608_);}
	.st94{fill:url(#XMLID_00000006708742304631408770000013112417073483085457_);}
	.st95{fill:url(#XMLID_00000067207321954440876930000018432524570585913255_);}
	.st96{fill:url(#XMLID_00000134952217037969958290000002196245344080895136_);}
	.st97{fill:url(#XMLID_00000164502162235650588440000006934932095730355120_);}
	.st98{fill:url(#XMLID_00000058573992167833434100000015795249065024400831_);}
	.st99{fill:url(#XMLID_00000128465420635942220710000014616901258698570934_);}
	.st100{fill:url(#XMLID_00000052819903239824576190000016336183596144241037_);}
	.st101{fill:url(#XMLID_00000045583908119904699280000010043275101573735611_);}
	.st102{fill:url(#XMLID_00000038372553687019289880000014767887440081421704_);}
	.st103{fill:url(#XMLID_00000142861497940994375750000013620716686104176312_);}
	.st104{fill:url(#XMLID_00000148636111530840242560000005184077658304719251_);}
	.st105{fill:url(#XMLID_00000057828094258380974660000014842784394055855498_);}
	.st106{fill:url(#XMLID_00000106853673285424971540000012996211499391526828_);}
	.st107{fill:url(#XMLID_00000163040523606825199820000012546178428128722846_);}
	.st108{fill:url(#XMLID_00000021816269931999316940000010378731410030240923_);}
	.st109{fill:url(#XMLID_00000063628831336073661060000011005260022474909328_);}
	.st110{fill:url(#XMLID_00000130617878626685389450000007174648103586265748_);}
	.st111{fill:url(#XMLID_00000123427079113493730480000007460561088164951219_);}
	.st112{fill:url(#XMLID_00000165198849696194169920000011553380599490734210_);}
	.st113{fill:url(#XMLID_00000176005109498823388520000000293447905524615562_);}
	.st114{fill:url(#XMLID_00000165920356284477327240000008262854122745290633_);}
	.st115{fill:url(#XMLID_00000050660143649156803150000000924780730924248720_);}
	.st116{fill:url(#XMLID_00000002378203171428365100000002431703336153743766_);}
	.st117{fill:url(#XMLID_00000086649993443660364820000017194989677419261077_);}
	.st118{fill:url(#XMLID_00000059308014318680006370000009272679248140839836_);}
	.st119{fill:url(#XMLID_00000067919122730003562090000011675735715856776079_);}
	.st120{fill:url(#XMLID_00000174575256960771970350000004543777593168922801_);}
	.st121{fill:url(#XMLID_00000046332672857538776560000001560465909826112140_);}
</style>
<g id="Capa_1">
</g>
<g id="Capa_2">
</g>
<g id="Capa_3">
	<rect width="300" height="250"/>
	<g>
		<linearGradient id="SVGID_1_" gradientUnits="userSpaceOnUse" x1="133.9868" y1="67.6834" x2="148.2248" y2="67.6834">
			<stop  offset="0" style="stop-color:#8B5421"/>
			<stop  offset="0.2497" style="stop-color:#E5AC47"/>
			<stop  offset="0.5025" style="stop-color:#F2D266"/>
			<stop  offset="0.7361" style="stop-color:#DFA843"/>
			<stop  offset="1" style="stop-color:#8B5421"/>
		</linearGradient>
		<path class="st1" d="M140.74,62.88c-1.47-0.69-6.76,0.34-6.76,0.34s5.49,1.13,6.66,1.78c2.31,1.27,3.66,2.02,7.58,7.72
			C145.63,67.02,143.63,64.24,140.74,62.88z"/>
		
			<linearGradient id="SVGID_00000157265792570414536120000006575919335712105401_" gradientUnits="userSpaceOnUse" x1="145.4458" y1="56.7604" x2="154.5542" y2="56.7604">
			<stop  offset="0" style="stop-color:#8B5421"/>
			<stop  offset="0.2497" style="stop-color:#E5AC47"/>
			<stop  offset="0.5025" style="stop-color:#F2D266"/>
			<stop  offset="0.7361" style="stop-color:#DFA843"/>
			<stop  offset="1" style="stop-color:#8B5421"/>
		</linearGradient>
		<path style="fill:url(#SVGID_00000157265792570414536120000006575919335712105401_);" d="M150,58.18l4.55,6.56
			c0,0-4.55-13.11-4.55-15.96c0,2.86-4.55,15.96-4.55,15.96L150,58.18z"/>
		
			<linearGradient id="SVGID_00000063603749649544157060000004829625948309553590_" gradientUnits="userSpaceOnUse" x1="133.0075" y1="45.9871" x2="147.7229" y2="45.9871">
			<stop  offset="0" style="stop-color:#8B5421"/>
			<stop  offset="0.2497" style="stop-color:#E5AC47"/>
			<stop  offset="0.5025" style="stop-color:#F2D266"/>
			<stop  offset="0.7361" style="stop-color:#DFA843"/>
			<stop  offset="1" style="stop-color:#8B5421"/>
		</linearGradient>
		<path style="fill:url(#SVGID_00000063603749649544157060000004829625948309553590_);" d="M142.09,45.4
			c0.93,1.62,2.38,12.1,2.38,12.1l3.26-5.48c0,0-0.96-6.65-2.28-8.67c-1.3-1.98-6.07-5.93-12.44-8.86
			C137.46,37.47,141.16,43.78,142.09,45.4z"/>
		
			<linearGradient id="SVGID_00000016781347323666673870000015989482594134044090_" gradientUnits="userSpaceOnUse" x1="123.8745" y1="49.0722" x2="140.6944" y2="49.0722">
			<stop  offset="0" style="stop-color:#8B5421"/>
			<stop  offset="0.2497" style="stop-color:#E5AC47"/>
			<stop  offset="0.5025" style="stop-color:#F2D266"/>
			<stop  offset="0.7361" style="stop-color:#DFA843"/>
			<stop  offset="1" style="stop-color:#8B5421"/>
		</linearGradient>
		<path style="fill:url(#SVGID_00000016781347323666673870000015989482594134044090_);" d="M137.71,51.81
			c1.16,3.53,0.42,9.45,0.42,9.45l2.24-2.19c0,0,0.74-3.98,0-9.34c-0.44-3.19-2.19-6.1-6.38-7.91c-2.85-1.23-6.66-1.05-10.11-4.95
			C126.15,42.61,135.36,44.66,137.71,51.81z"/>
		
			<linearGradient id="SVGID_00000121255125427000588750000011803283706148265634_" gradientUnits="userSpaceOnUse" x1="118.2134" y1="68.1058" x2="134.856" y2="68.1058">
			<stop  offset="0" style="stop-color:#8B5421"/>
			<stop  offset="0.2497" style="stop-color:#E5AC47"/>
			<stop  offset="0.5025" style="stop-color:#F2D266"/>
			<stop  offset="0.7361" style="stop-color:#DFA843"/>
			<stop  offset="1" style="stop-color:#8B5421"/>
		</linearGradient>
		<path style="fill:url(#SVGID_00000121255125427000588750000011803283706148265634_);" d="M122.77,76.5
			c6.28-2.45,8.45-10.09,12.08-9.32c-1.57-3.38-6.39-6.5-9.02-6.55c-1.08-0.02-2.5,1.16-3.57,1.03c-0.94-0.11-2.16-0.39-3.07-2.3
			c-0.43,2.68,1.58,4.35,2.36,4.19c0.82-0.17,3.07-0.4,4.83,0.37c1.89,0.83,2.99,1.68,2.73,2.64c-0.62,2.35-4.68,6.98-6.86,8.34
			c-1.03,0.64-2.8,0.95-4.04,0.53C118.09,76.31,120.33,77.45,122.77,76.5z"/>
		
			<linearGradient id="SVGID_00000140010046295891543120000009956700502344166041_" gradientUnits="userSpaceOnUse" x1="113.5589" y1="70.9174" x2="127.3759" y2="70.9174">
			<stop  offset="0" style="stop-color:#8B5421"/>
			<stop  offset="0.2497" style="stop-color:#E5AC47"/>
			<stop  offset="0.5025" style="stop-color:#F2D266"/>
			<stop  offset="0.7361" style="stop-color:#DFA843"/>
			<stop  offset="1" style="stop-color:#8B5421"/>
		</linearGradient>
		<path style="fill:url(#SVGID_00000140010046295891543120000009956700502344166041_);" d="M116.43,68.83
			c1.13-0.6,3.57-0.48,3.31,1.7c-0.34,2.86,6.36-1.53,7.64-3.97c-2.5,1.03-4,1.67-4.65,1.13c-0.66-0.54-0.82-1.02-0.88-1.67
			c-0.07-0.76-4.33-0.36-5.26-0.12c-0.93,0.24-2.36,1.05-2.8,2.67s-0.6,5.53,3.37,7.7C114.89,73.75,115.03,69.58,116.43,68.83z"/>
		
			<linearGradient id="SVGID_00000020358277140544125050000011090249202761898926_" gradientUnits="userSpaceOnUse" x1="95.1865" y1="53.522" x2="137.2901" y2="53.522">
			<stop  offset="0" style="stop-color:#8B5421"/>
			<stop  offset="0.2497" style="stop-color:#E5AC47"/>
			<stop  offset="0.5025" style="stop-color:#F2D266"/>
			<stop  offset="0.7361" style="stop-color:#DFA843"/>
			<stop  offset="1" style="stop-color:#8B5421"/>
		</linearGradient>
		<path style="fill:url(#SVGID_00000020358277140544125050000011090249202761898926_);" d="M99.02,61.71
			c1.17,0.22,11.42,0.38,13.81,0c2.74-0.44,9.5-9.75,11.04-10.04c1.34-0.35,4.28-0.19,6.34-0.01c1.01,0.13,5.31,2.58,5.6,4.68
			c0.11,0.81-0.57-0.18-1.13,0.48c-0.73,0.88,0.11,1.84,0.54,2.09c0.58,0.34,1.39,0.17,1.84-0.29c0.46-0.48,0.16-3.72-0.28-4.89
			c-1.37-3.59-6.26-6.3-12.59-8.33c-3.82-1.22-9.61,1.54-9.57,5.8c1.8-2.13,4.87-4.19,8.25-3.21c-1.73,2.24-7.43,7.49-9.7,9.01
			c-1.98,1.34-15.34,1.95-16.11,0.07c-0.67-1.63,2.05-1.31,2.05-1.31s1.48-0.43,1.09-1.7c-0.39-1.27-1.76-1.27-1.76-1.27
			s0.98,0.59,0,1.18c-0.98,0.59-2.85,0.34-3.21,2.19C94.81,58.33,97.7,61.46,99.02,61.71z"/>
		
			<linearGradient id="SVGID_00000122703940842622792760000015862587937601060777_" gradientUnits="userSpaceOnUse" x1="143.3972" y1="165.9388" x2="156.2505" y2="165.9388">
			<stop  offset="0" style="stop-color:#8B5421"/>
			<stop  offset="0.2497" style="stop-color:#E5AC47"/>
			<stop  offset="0.5025" style="stop-color:#F2D266"/>
			<stop  offset="0.7361" style="stop-color:#DFA843"/>
			<stop  offset="1" style="stop-color:#8B5421"/>
		</linearGradient>
		<path style="fill:url(#SVGID_00000122703940842622792760000015862587937601060777_);" d="M143.42,161.97
			c0.47,2.42,4.29-4.7,6.41,23.73c2.12-28.43,5.94-21.3,6.41-23.73c0.25-1.29-1.74-4.01-2.71-5.75c-0.85-1.52-1.18-5.03-0.31-6.07
			c0.55-0.66,1.67,1.27,2.4-0.01c1.07-1.86-1.07-3.96-2.4-3.96c-1.33,0-2.19,2.37-2.41,3.38c-0.58,2.7,0.95,10.5-0.98,13.07
			c-1.93-2.57-0.4-10.38-0.98-13.07c-0.22-1.01-1.08-3.38-2.41-3.38c-1.33,0-3.48,2.1-2.4,3.96c0.73,1.27,1.85-0.65,2.4,0.01
			c0.87,1.04,0.55,4.55-0.31,6.07C145.15,157.96,143.17,160.69,143.42,161.97z"/>
		
			<linearGradient id="SVGID_00000061448310876892314120000016577652878783135874_" gradientUnits="userSpaceOnUse" x1="80.2179" y1="86.9283" x2="114.2132" y2="86.9283">
			<stop  offset="0" style="stop-color:#8B5421"/>
			<stop  offset="0.2497" style="stop-color:#E5AC47"/>
			<stop  offset="0.5025" style="stop-color:#F2D266"/>
			<stop  offset="0.7361" style="stop-color:#DFA843"/>
			<stop  offset="1" style="stop-color:#8B5421"/>
		</linearGradient>
		<path style="fill:url(#SVGID_00000061448310876892314120000016577652878783135874_);" d="M86.49,95.88c3.12-1,3.99-6.73,6.39-7.43
			c-0.82,1.65-2,3.56-2.28,9.99c-0.17,3.99,2.81,9.68,1.25,9.26c-1.36-0.37-2.31,0.81-2.05,1.73c0.27,0.94,1.08,0.99,1.71,0.97
			c0.93-0.04,2.35-1.69,2.72-2.55c1.37-3.23-1.21-8.2,2.62-17.41c1.13-2.71,5.29-7.47,7.97-8.67c1.54-0.69,4.3,0.55,5.91,0.05
			c1.42-0.44,2.83-1.49,3.49-3.45c-1.9,1.22-3.45,0.9-4.56,0.88c-1.84-0.03-4.32-2.19-6.12-1.81c-2.17,0.46-3.13,3.33-6.31,6.17
			c-0.45-2.4,2.3-7.46,3.37-8.74c1.66-1.98,3.8-3.97,6.68-4.99c-5.44-2.57-8.86,2.3-8.96,1.37c-0.1-0.91-0.02-3.19,0.71-3.55
			c1-0.49,2.33-0.71,3.39-1.86c0.5-0.54,0.82-1.82,0.38-2.35c-0.37,0.88-0.47,1.48-1.25,1.63s-7.96-0.81-8.85,0.06
			c-3.61,3.55-6.4,4.98-7.72,7.57c-0.44,0.85-0.59,2.89,0.44,3.54c-0.05-1.28,0.29-2.28,0.81-2.82c2.4-2.51,7.59-3.74,8.25-3.68
			c0.29,0.02,0.14,3.78,0.05,5.12c-0.05,0.73-2.37,2.68-2.99,3.53c-2.44,3.37-3.36,12.32-6.12,15.43c-0.49,0.56-1.9,1.3-2.64,1.37
			c-0.66,0.06-1.68-0.4-2.55-0.78C80.9,96.01,83.56,96.82,86.49,95.88z"/>
		
			<linearGradient id="SVGID_00000178178626956006716070000009699836956729618080_" gradientUnits="userSpaceOnUse" x1="90.3057" y1="117.604" x2="119.3938" y2="117.604">
			<stop  offset="0" style="stop-color:#8B5421"/>
			<stop  offset="0.2497" style="stop-color:#E5AC47"/>
			<stop  offset="0.5025" style="stop-color:#F2D266"/>
			<stop  offset="0.7361" style="stop-color:#DFA843"/>
			<stop  offset="1" style="stop-color:#8B5421"/>
		</linearGradient>
		<path style="fill:url(#SVGID_00000178178626956006716070000009699836956729618080_);" d="M109.84,113.71
			c2.43-2.12,3.45-3.33,9.55-2.72c0,0-5.18-4.19-9.99-2.42c-4.81,1.76-9.84,14.07-12.19,15.72c-2.35,1.65-6.91,2.73-6.91,2.73
			s5.66,0.43,8.37-1.26C101.4,124.07,107.12,116.09,109.84,113.71z"/>
		
			<linearGradient id="SVGID_00000008113087999113698520000015330779404249064883_" gradientUnits="userSpaceOnUse" x1="83.8109" y1="106.7202" x2="116.4554" y2="106.7202">
			<stop  offset="0" style="stop-color:#8B5421"/>
			<stop  offset="0.2497" style="stop-color:#E5AC47"/>
			<stop  offset="0.5025" style="stop-color:#F2D266"/>
			<stop  offset="0.7361" style="stop-color:#DFA843"/>
			<stop  offset="1" style="stop-color:#8B5421"/>
		</linearGradient>
		<path style="fill:url(#SVGID_00000008113087999113698520000015330779404249064883_);" d="M103.53,108.14
			c3.33-3.48,5.68-4.61,10.03-4.41c-4.16-3.23-8.59-0.32-9.66,0.95c0.37-2.35-0.04-3.63,0.75-4.9c2.16-3.44,4.12-5.34,5.16-5.97
			c2.35-1.43,3.7-2.15,4.98-2.23c0.78-0.05-0.17,2.52-0.17,2.52s1.44-1.2,1.69-2.42c0.44-2.22,0-2.66-2.96-1.87
			c-2.29,0.61-6.87,2.31-9.45,4.81c0.93-4.73-3.7-6.46-3.7-6.46s1.23,6.5,0.46,8.36c-4.99,5.53-5.07,13.88-5.07,13.88
			s2.86-5.49,4.41-6.57c-8.08,19.44-12.86,19.88-12.34,18.22c0.44-1.42-1.32-2.64-2.64-1.66c-1.32,0.98-1.62,3.67-0.59,4.6
			c1.03,0.93,4.01-0.38,7.06-1.67C96.26,121.28,100.9,110.89,103.53,108.14z"/>
		
			<linearGradient id="SVGID_00000090262982720432700930000013445547965224794526_" gradientUnits="userSpaceOnUse" x1="92.8031" y1="138.2731" x2="119.8666" y2="138.2731">
			<stop  offset="0" style="stop-color:#8B5421"/>
			<stop  offset="0.2497" style="stop-color:#E5AC47"/>
			<stop  offset="0.5025" style="stop-color:#F2D266"/>
			<stop  offset="0.7361" style="stop-color:#DFA843"/>
			<stop  offset="1" style="stop-color:#8B5421"/>
		</linearGradient>
		<path style="fill:url(#SVGID_00000090262982720432700930000013445547965224794526_);" d="M119.83,119.44
			c0-2.06-0.78-3.04-1.45-3.19c-0.67-0.16-1.39,0.22-1.72,0.51c-0.55,0.48-1.26,1.54-1.02,2.93c0.16,0.93,1.74,1.27,2.44-0.66
			c-0.07,18.9-5.22,24.3-5.22,24.3c-1.6-9.71-5.37-13.09-9.36-14.63c1.03-1.55,3.99-4.8,4.57-4.31c-0.32,7.02,4.65,12.66,5.29,12.54
			c-1.71-4.65-1.67-12.43-1.47-15.08c0.2-2.65,2.31-5.48,2.31-5.48s-2.64,0.18-4.07,1.25c-1.19,0.88-7.25,7.77-8.39,9.3
			c-1.3,0.54-8.94,5.49-8.94,8.11c2.2-3.31,6.61-2.79,6.61-2.79s4.16,0.24,7.13,3.95c-4.72-2.96-10.68-1.68-10.7,2.36
			c-0.01,1.19,0.64,2.23,2.25,2.35c-1.4-0.95-0.74-2.33-0.15-2.62c1.05-0.52,5.97-0.47,8.08,1.88c2.15,2.4,2.69,5.29,2.2,9.11
			c-0.49,3.82-3.82,9.26-9.7,9.99C101.18,163.27,120.76,157.39,119.83,119.44z"/>
		
			<linearGradient id="SVGID_00000008859699672327699680000013844991228786720959_" gradientUnits="userSpaceOnUse" x1="122.508" y1="95.9187" x2="177.492" y2="95.9187">
			<stop  offset="0" style="stop-color:#8B5421"/>
			<stop  offset="0.2497" style="stop-color:#E5AC47"/>
			<stop  offset="0.5025" style="stop-color:#F2D266"/>
			<stop  offset="0.7361" style="stop-color:#DFA843"/>
			<stop  offset="1" style="stop-color:#8B5421"/>
		</linearGradient>
		<path style="fill:url(#SVGID_00000008859699672327699680000013844991228786720959_);" d="M177.23,88.54
			c-0.87-3.39-7.84-9.6-7.84-9.6s-2.89-4.45-3.45-6.5c-0.46-1.71-2.5-4.17-4.48-4.17c-2.76,0-7.11,6.26-9.16,6.29
			c-1.39,0.02-0.37,3.39-0.37,3.39s-1.62-0.48-1.93-0.28c-0.32-0.2-1.93,0.28-1.93,0.28s1.02-3.37-0.37-3.39
			c-2.06-0.02-6.41-6.28-9.16-6.29c-1.98,0-4.02,2.46-4.48,4.17c-0.55,2.05-3.45,6.5-3.45,6.5s-6.97,6.21-7.84,9.6
			c-0.9,3.53,0.84,15.57,0.3,17.4c-0.33,1.12,4.87,2.99,6.92,7.07c0.69,0.07,3.88-4.77,3.35-4.93c-1.62-0.49-1.5,0.84-2.5,0.34
			c-1.89-0.95-3.65-3.65-4.53-5.12c-0.52-2.16-2.72-11.44-1.36-12.35c1.13,0.43,1.94,2.05,3.42,2.83c1.95,1.03,4.77,4.59,5.14,8.26
			c0.17,1.71,0.12,3.83,1.47,3.29c1.16-0.46,5.17-5.14,4.99-8.4c1.58,3.71-5.68,10.75-6.32,13.34c-0.64,2.6,0.63,12.7,3.31,13.25
			c3.44,0.7,7.81-7.06,11.63-7.65c1.04-0.16,0.83-5.75,0.16-7.23c-0.5-1.1-2.33-1.86-3.03-3.46c-1.1-2.52,1.17-0.76,1.24-1.7
			c0.03-0.39,0.02-0.79-0.05-1.17c-0.16-0.91-1.18-1.27-1.6-2.05c-0.13-0.25-0.57-0.16-0.91-0.18c-0.75-0.04,0.05,2.82-1.27,2.74
			c-0.46-0.03-0.64-0.42-0.64-1.69c0-0.9,0.02-2.77,1.18-2.74c0.67,0.01,1.47-0.44,1.89,0.54c0.8,1.87,0.69,0.88,4.43,1
			c3.75-0.12,3.64,0.87,4.43-1c0.42-0.98,1.21-0.52,1.89-0.54c1.15-0.02,1.18,1.84,1.18,2.74c0,1.27-0.18,1.66-0.64,1.69
			c-1.32,0.07-0.52-2.79-1.27-2.74c-0.34,0.02-0.78-0.07-0.91,0.18c-0.42,0.78-1.45,1.15-1.6,2.05c-0.07,0.38-0.08,0.78-0.05,1.17
			c0.07,0.94,2.34-0.83,1.24,1.7c-0.7,1.6-2.53,2.36-3.03,3.46c-0.67,1.48-0.88,7.07,0.16,7.23c3.82,0.59,8.19,8.35,11.63,7.65
			c2.67-0.54,3.94-10.65,3.31-13.25c-0.64-2.6-7.9-9.63-6.32-13.34c-0.17,3.26,3.84,7.93,4.99,8.4c1.35,0.54,1.3-1.58,1.47-3.29
			c0.37-3.67,3.2-7.24,5.14-8.26c1.47-0.78,2.29-2.4,3.42-2.83c1.36,0.92-0.84,10.2-1.36,12.35c-0.88,1.47-2.64,4.17-4.53,5.12
			c-1,0.5-0.88-0.83-2.5-0.34c-0.52,0.16,2.67,5,3.35,4.93c2.06-4.08,7.25-5.95,6.92-7.07C176.39,104.1,178.13,92.06,177.23,88.54z
			 M143.62,85.66c-0.89,1.01-1.68,2.24-1.78,2.71c-0.12,0.6-0.01,1.28-0.12,2.14c-0.15,1.21-0.67,2.34-1.74,4.1
			c0.86-4.28,0.56-6.02-0.05-6.34c-0.61-0.32-5.14,0.1-6.15-0.24c-1-0.34-3.04-2.33-3.04-2.33s3.23-0.07,3.99-0.39
			c0.76-0.32,1.15-0.24,1.51-0.91c0.36-0.66,0.15-2.79,0.74-4.56c0.58-1.78,3.09-3.3,3.09-3.3s-0.8,0.72-1.54,1.89
			c-0.4,0.62-0.48,1.19-0.51,1.76c-0.09,1.59-0.45,4.21-0.12,4.92c0.32,0.71,1.09,1.58,1.86,2.15c0.44,0.33,1.36,0.02,1.91-0.2
			c0.48-0.19,1.06-1.23,1.85-1.94c0.44-0.39,1.29-1,2.16-1.24C145.2,84.11,144.38,84.79,143.62,85.66z M166.21,88.02
			c-1,0.34-5.53-0.07-6.15,0.24c-0.61,0.32-0.91,2.06-0.05,6.34c-1.07-1.76-1.6-2.89-1.74-4.1c-0.1-0.86,0-1.54-0.12-2.14
			c-0.09-0.46-0.89-1.69-1.78-2.71c-0.76-0.87-1.58-1.55-2.07-1.78c0.87,0.24,1.72,0.85,2.16,1.24c0.79,0.71,1.37,1.75,1.85,1.94
			c0.55,0.22,1.47,0.53,1.91,0.2c0.77-0.58,1.54-1.44,1.86-2.15c0.32-0.71-0.03-3.33-0.12-4.92c-0.03-0.57-0.12-1.14-0.51-1.76
			c-0.75-1.16-1.54-1.89-1.54-1.89s2.51,1.52,3.09,3.3c0.58,1.78,0.38,3.9,0.74,4.56c0.36,0.66,0.75,0.59,1.51,0.91
			c0.76,0.32,3.99,0.39,3.99,0.39S167.21,87.68,166.21,88.02z"/>
		
			<linearGradient id="SVGID_00000088093068703529308830000015319235778413714357_" gradientUnits="userSpaceOnUse" x1="136.4564" y1="127.0228" x2="163.5436" y2="127.0228">
			<stop  offset="0" style="stop-color:#8B5421"/>
			<stop  offset="0.2497" style="stop-color:#E5AC47"/>
			<stop  offset="0.5025" style="stop-color:#F2D266"/>
			<stop  offset="0.7361" style="stop-color:#DFA843"/>
			<stop  offset="1" style="stop-color:#8B5421"/>
		</linearGradient>
		<path style="fill:url(#SVGID_00000088093068703529308830000015319235778413714357_);" d="M157.44,133.77
			c0.47-0.17,0.92,1.31,1.32,1.49c1.03,0.47,2.67,1.53,3.29,0.45c0.28-0.48,1.42-1.72,1.49-2.63c0.11-1.43-2.46,0.26-2.42-0.72
			c0.09-2.17-0.44-4.84,0.07-4.25c0.23,0.27,0.86,0.14,0.84-0.18c-0.04-0.62,0.37-2.94-0.06-3.39c-0.43-0.45-1.83-0.24-3.24-1.38
			c-1.02-0.83-2.8-2.14-5.11-4.59c-1-1.06-3.62-0.59-3.62-0.59s-2.63-0.47-3.62,0.59c-2.3,2.45-4.08,3.76-5.11,4.59
			c-1.41,1.15-2.81,0.93-3.24,1.38c-0.43,0.45-0.02,2.77-0.06,3.39c-0.02,0.33,0.61,0.45,0.84,0.18c0.51-0.59-0.02,2.08,0.07,4.25
			c0.04,0.98-2.53-0.71-2.42,0.72c0.07,0.91,1.21,2.15,1.49,2.63c0.62,1.07,2.26,0.02,3.29-0.45c0.41-0.19,0.86-1.66,1.32-1.49
			c0.47,0.17,0.56,1.22,1.49,1.52c0.81,0.26,5.95,0.17,5.95,0.17s5.14,0.09,5.95-0.17C156.88,134.99,156.98,133.94,157.44,133.77z
			 M155.29,130.97c-0.12-3.43-1.49-4.57-1.87-4.82c-0.74-0.48-3.42-0.5-3.42-0.5s-2.68,0.03-3.42,0.5
			c-0.39,0.25-1.75,1.39-1.87,4.82c-0.26-1.51-0.24-3.97,0.44-5.08c0.91-1.48,4.85-1.6,4.85-1.6s3.94,0.12,4.85,1.6
			C155.53,127,155.55,129.47,155.29,130.97z"/>
		
			<linearGradient id="SVGID_00000154419355192475575200000011470292751944388241_" gradientUnits="userSpaceOnUse" x1="151.7752" y1="67.6834" x2="166.0132" y2="67.6834">
			<stop  offset="0" style="stop-color:#8B5421"/>
			<stop  offset="0.2497" style="stop-color:#E5AC47"/>
			<stop  offset="0.5025" style="stop-color:#F2D266"/>
			<stop  offset="0.7361" style="stop-color:#DFA843"/>
			<stop  offset="1" style="stop-color:#8B5421"/>
		</linearGradient>
		<path style="fill:url(#SVGID_00000154419355192475575200000011470292751944388241_);" d="M159.35,65
			c1.17-0.64,6.66-1.78,6.66-1.78s-5.29-1.04-6.76-0.34c-2.88,1.36-4.88,4.14-7.48,9.84C155.69,67.02,157.04,66.27,159.35,65z"/>
		
			<linearGradient id="SVGID_00000168819000171703588860000007833926661396418980_" gradientUnits="userSpaceOnUse" x1="147.0128" y1="68.2684" x2="152.9872" y2="68.2684">
			<stop  offset="0" style="stop-color:#8B5421"/>
			<stop  offset="0.2497" style="stop-color:#E5AC47"/>
			<stop  offset="0.5025" style="stop-color:#F2D266"/>
			<stop  offset="0.7361" style="stop-color:#DFA843"/>
			<stop  offset="1" style="stop-color:#8B5421"/>
		</linearGradient>
		<path style="fill:url(#SVGID_00000168819000171703588860000007833926661396418980_);" d="M150,61.27
			c-1.78,1.63-2.99,5.95-2.99,5.95s1.69,1.82,2.13,3.23c0.44,1.41,0.86,4.82,0.86,4.82s0.42-3.42,0.86-4.82
			c0.44-1.41,2.13-3.23,2.13-3.23S151.78,62.89,150,61.27z M150,69.25l-1.28-2.23l1.28-1.93l1.28,1.93L150,69.25z"/>
		
			<linearGradient id="SVGID_00000034048496991985803950000016724731747200775328_" gradientUnits="userSpaceOnUse" x1="152.2771" y1="45.9871" x2="166.9925" y2="45.9871">
			<stop  offset="0" style="stop-color:#8B5421"/>
			<stop  offset="0.2497" style="stop-color:#E5AC47"/>
			<stop  offset="0.5025" style="stop-color:#F2D266"/>
			<stop  offset="0.7361" style="stop-color:#DFA843"/>
			<stop  offset="1" style="stop-color:#8B5421"/>
		</linearGradient>
		<path style="fill:url(#SVGID_00000034048496991985803950000016724731747200775328_);" d="M157.91,45.4
			c0.93-1.62,4.63-7.93,9.08-10.92c-6.37,2.94-11.14,6.88-12.44,8.86c-1.32,2.02-2.28,8.67-2.28,8.67l3.26,5.48
			C155.53,57.5,156.98,47.02,157.91,45.4z"/>
		
			<linearGradient id="SVGID_00000027582757003280621160000014721732721430256033_" gradientUnits="userSpaceOnUse" x1="159.3056" y1="49.0722" x2="176.1255" y2="49.0722">
			<stop  offset="0" style="stop-color:#8B5421"/>
			<stop  offset="0.2497" style="stop-color:#E5AC47"/>
			<stop  offset="0.5025" style="stop-color:#F2D266"/>
			<stop  offset="0.7361" style="stop-color:#DFA843"/>
			<stop  offset="1" style="stop-color:#8B5421"/>
		</linearGradient>
		<path style="fill:url(#SVGID_00000027582757003280621160000014721732721430256033_);" d="M159.63,49.73c-0.74,5.36,0,9.34,0,9.34
			l2.24,2.19c0,0-0.74-5.92,0.42-9.45c2.35-7.15,11.56-9.21,13.83-14.94c-3.45,3.89-7.26,3.72-10.11,4.95
			C161.83,43.63,160.08,46.54,159.63,49.73z"/>
		
			<linearGradient id="SVGID_00000013177086446514437150000006130313842547873458_" gradientUnits="userSpaceOnUse" x1="165.144" y1="68.1058" x2="181.7866" y2="68.1058">
			<stop  offset="0" style="stop-color:#8B5421"/>
			<stop  offset="0.2497" style="stop-color:#E5AC47"/>
			<stop  offset="0.5025" style="stop-color:#F2D266"/>
			<stop  offset="0.7361" style="stop-color:#DFA843"/>
			<stop  offset="1" style="stop-color:#8B5421"/>
		</linearGradient>
		<path style="fill:url(#SVGID_00000013177086446514437150000006130313842547873458_);" d="M181.78,75.42
			c-1.25,0.43-3.02,0.11-4.04-0.53c-2.18-1.36-6.24-5.99-6.86-8.34c-0.26-0.96,0.84-1.81,2.73-2.64c1.76-0.77,4.01-0.54,4.83-0.37
			c0.78,0.16,2.79-1.51,2.36-4.19c-0.91,1.91-2.12,2.19-3.07,2.3c-1.07,0.13-2.49-1.05-3.57-1.03c-2.63,0.05-7.46,3.17-9.02,6.55
			c3.64-0.77,5.8,6.87,12.08,9.32C179.67,77.45,181.91,76.31,181.78,75.42z"/>
		
			<linearGradient id="SVGID_00000131341447112728290610000012932578383789251501_" gradientUnits="userSpaceOnUse" x1="172.6241" y1="70.9174" x2="186.4411" y2="70.9174">
			<stop  offset="0" style="stop-color:#8B5421"/>
			<stop  offset="0.2497" style="stop-color:#E5AC47"/>
			<stop  offset="0.5025" style="stop-color:#F2D266"/>
			<stop  offset="0.7361" style="stop-color:#DFA843"/>
			<stop  offset="1" style="stop-color:#8B5421"/>
		</linearGradient>
		<path style="fill:url(#SVGID_00000131341447112728290610000012932578383789251501_);" d="M186.22,68.57
			c-0.44-1.62-1.87-2.42-2.8-2.67c-0.93-0.24-5.19-0.64-5.26,0.12c-0.06,0.65-0.22,1.13-0.88,1.67c-0.66,0.54-2.15-0.09-4.65-1.13
			c1.27,2.45,7.98,6.83,7.64,3.97c-0.26-2.17,2.18-2.3,3.31-1.7c1.4,0.75,1.54,4.92-0.72,7.43
			C186.83,74.1,186.66,70.18,186.22,68.57z"/>
		
			<linearGradient id="SVGID_00000094587892637473609350000003418086280013739184_" gradientUnits="userSpaceOnUse" x1="162.7099" y1="53.522" x2="204.8135" y2="53.522">
			<stop  offset="0" style="stop-color:#8B5421"/>
			<stop  offset="0.2497" style="stop-color:#E5AC47"/>
			<stop  offset="0.5025" style="stop-color:#F2D266"/>
			<stop  offset="0.7361" style="stop-color:#DFA843"/>
			<stop  offset="1" style="stop-color:#8B5421"/>
		</linearGradient>
		<path style="fill:url(#SVGID_00000094587892637473609350000003418086280013739184_);" d="M163.22,53.73
			c-0.44,1.17-0.74,4.41-0.28,4.89c0.45,0.47,1.26,0.64,1.84,0.29c0.42-0.25,1.27-1.21,0.54-2.09c-0.55-0.67-1.24,0.33-1.13-0.48
			c0.29-2.1,4.59-4.55,5.6-4.68c2.06-0.18,4.99-0.35,6.34,0.01c1.54,0.29,8.3,9.6,11.04,10.04c2.39,0.38,12.64,0.22,13.81,0
			c1.32-0.24,4.21-3.38,3.8-5.55c-0.36-1.85-2.23-1.6-3.21-2.19c-0.98-0.59,0-1.18,0-1.18s-1.37,0-1.76,1.27
			c-0.39,1.27,1.09,1.7,1.09,1.7s2.72-0.32,2.05,1.31c-0.77,1.87-14.13,1.26-16.11-0.07c-2.27-1.53-7.96-6.77-9.7-9.01
			c3.38-0.98,6.45,1.08,8.25,3.21c0.04-4.26-5.75-7.03-9.57-5.8C169.48,47.43,164.59,50.15,163.22,53.73z"/>
		
			<linearGradient id="SVGID_00000012453528329641290600000007073158237286354822_" gradientUnits="userSpaceOnUse" x1="185.7868" y1="86.9283" x2="219.7821" y2="86.9283">
			<stop  offset="0" style="stop-color:#8B5421"/>
			<stop  offset="0.2497" style="stop-color:#E5AC47"/>
			<stop  offset="0.5025" style="stop-color:#F2D266"/>
			<stop  offset="0.7361" style="stop-color:#DFA843"/>
			<stop  offset="1" style="stop-color:#8B5421"/>
		</linearGradient>
		<path style="fill:url(#SVGID_00000012453528329641290600000007073158237286354822_);" d="M217.24,95.2
			c-0.74-0.07-2.15-0.81-2.64-1.37c-2.76-3.11-3.68-12.05-6.12-15.43c-0.61-0.85-2.94-2.79-2.99-3.53
			c-0.09-1.34-0.24-5.09,0.05-5.12c0.66-0.06,5.85,1.18,8.25,3.68c0.52,0.54,0.86,1.53,0.81,2.82c1.03-0.65,0.88-2.68,0.44-3.54
			c-1.33-2.59-4.11-4.02-7.72-7.57c-0.89-0.88-8.08,0.08-8.85-0.06c-0.77-0.15-0.88-0.75-1.25-1.63c-0.44,0.54-0.12,1.81,0.38,2.35
			c1.06,1.15,2.39,1.37,3.39,1.86c0.73,0.36,0.81,2.64,0.71,3.55c-0.1,0.93-3.53-3.94-8.96-1.37c2.89,1.03,5.03,3.02,6.68,4.99
			c1.07,1.28,3.82,6.34,3.37,8.74c-3.18-2.84-4.14-5.71-6.31-6.17c-1.8-0.38-4.28,1.78-6.12,1.81c-1.11,0.02-2.67,0.34-4.56-0.88
			c0.65,1.96,2.07,3.01,3.49,3.45c1.61,0.5,4.37-0.74,5.91-0.05c2.68,1.19,6.84,5.96,7.97,8.67c3.83,9.21,1.25,14.18,2.62,17.41
			c0.36,0.86,1.79,2.51,2.72,2.55c0.63,0.03,1.44-0.03,1.71-0.97c0.26-0.92-0.69-2.09-2.05-1.73c-1.56,0.42,1.42-5.26,1.25-9.26
			c-0.28-6.43-1.46-8.34-2.28-9.99c2.4,0.7,3.27,6.43,6.39,7.43c2.93,0.94,5.58,0.13,6.27-1.46C218.91,94.8,217.9,95.26,217.24,95.2
			z"/>
		
			<linearGradient id="SVGID_00000008844296578528450320000012860303524906226868_" gradientUnits="userSpaceOnUse" x1="180.6062" y1="117.604" x2="209.6943" y2="117.604">
			<stop  offset="0" style="stop-color:#8B5421"/>
			<stop  offset="0.2497" style="stop-color:#E5AC47"/>
			<stop  offset="0.5025" style="stop-color:#F2D266"/>
			<stop  offset="0.7361" style="stop-color:#DFA843"/>
			<stop  offset="1" style="stop-color:#8B5421"/>
		</linearGradient>
		<path style="fill:url(#SVGID_00000008844296578528450320000012860303524906226868_);" d="M190.6,108.57
			c-4.81-1.76-9.99,2.42-9.99,2.42c6.1-0.61,7.12,0.6,9.55,2.72c2.73,2.37,8.45,10.36,11.17,12.05c2.72,1.69,8.37,1.26,8.37,1.26
			s-4.56-1.08-6.91-2.73C200.44,122.64,195.41,110.33,190.6,108.57z"/>
		
			<linearGradient id="SVGID_00000121268156026460045020000007425261195762588327_" gradientUnits="userSpaceOnUse" x1="183.5446" y1="106.7202" x2="216.1891" y2="106.7202">
			<stop  offset="0" style="stop-color:#8B5421"/>
			<stop  offset="0.2497" style="stop-color:#E5AC47"/>
			<stop  offset="0.5025" style="stop-color:#F2D266"/>
			<stop  offset="0.7361" style="stop-color:#DFA843"/>
			<stop  offset="1" style="stop-color:#8B5421"/>
		</linearGradient>
		<path style="fill:url(#SVGID_00000121268156026460045020000007425261195762588327_);" d="M214.98,120.37
			c-1.32-0.98-3.09,0.24-2.64,1.66c0.52,1.66-4.26,1.22-12.34-18.22c1.54,1.08,4.41,6.57,4.41,6.57s-0.07-8.35-5.07-13.88
			c-0.76-1.86,0.46-8.36,0.46-8.36s-4.63,1.74-3.7,6.46c-2.59-2.5-7.16-4.2-9.45-4.81c-2.96-0.79-3.4-0.34-2.96,1.87
			c0.24,1.22,1.69,2.42,1.69,2.42s-0.95-2.57-0.17-2.52c1.28,0.08,2.63,0.8,4.98,2.23c1.04,0.63,3,2.53,5.16,5.97
			c0.8,1.27,0.39,2.55,0.75,4.9c-1.08-1.27-5.51-4.19-9.66-0.95c4.35-0.2,6.7,0.93,10.03,4.41c2.63,2.75,7.27,13.14,12.04,15.17
			c3.05,1.3,6.03,2.6,7.06,1.67C216.6,124.05,216.31,121.35,214.98,120.37z"/>
		
			<linearGradient id="SVGID_00000032630116292172252820000012903073739010011794_" gradientUnits="userSpaceOnUse" x1="180.1334" y1="138.2731" x2="207.1969" y2="138.2731">
			<stop  offset="0" style="stop-color:#8B5421"/>
			<stop  offset="0.2497" style="stop-color:#E5AC47"/>
			<stop  offset="0.5025" style="stop-color:#F2D266"/>
			<stop  offset="0.7361" style="stop-color:#DFA843"/>
			<stop  offset="1" style="stop-color:#8B5421"/>
		</linearGradient>
		<path style="fill:url(#SVGID_00000032630116292172252820000012903073739010011794_);" d="M198.25,126.91
			c-1.14-1.53-7.21-8.42-8.39-9.3c-1.43-1.06-4.07-1.25-4.07-1.25s2.11,2.83,2.31,5.48c0.2,2.65,0.24,10.43-1.47,15.08
			c0.64,0.13,5.6-5.51,5.29-12.54c0.59-0.49,3.55,2.76,4.57,4.31c-3.99,1.54-7.76,4.92-9.36,14.63c0,0-5.14-5.4-5.22-24.3
			c0.7,1.93,2.27,1.59,2.44,0.66c0.24-1.38-0.47-2.45-1.02-2.93c-0.33-0.29-1.06-0.67-1.72-0.51c-0.67,0.16-1.45,1.14-1.45,3.19
			c-0.93,37.95,18.66,43.83,21.3,39.81c-5.88-0.73-9.21-6.17-9.7-9.99c-0.49-3.82,0.05-6.71,2.2-9.11c2.11-2.35,7.03-2.4,8.08-1.88
			c0.6,0.29,1.25,1.66-0.15,2.62c1.62-0.12,2.26-1.16,2.25-2.35c-0.02-4.04-5.98-5.33-10.7-2.36c2.96-3.71,7.13-3.95,7.13-3.95
			s4.41-0.51,6.61,2.79C207.2,132.39,199.55,127.45,198.25,126.91z"/>
		
			<linearGradient id="SVGID_00000174575931447963217790000003626535485043272614_" gradientUnits="userSpaceOnUse" x1="106.592" y1="176.6143" x2="193.4447" y2="176.6143">
			<stop  offset="0" style="stop-color:#8B5421"/>
			<stop  offset="0.2497" style="stop-color:#E5AC47"/>
			<stop  offset="0.5025" style="stop-color:#F2D266"/>
			<stop  offset="0.7361" style="stop-color:#DFA843"/>
			<stop  offset="1" style="stop-color:#8B5421"/>
		</linearGradient>
		<path style="fill:url(#SVGID_00000174575931447963217790000003626535485043272614_);" d="M189.49,166.75
			c-2.06-0.88-6.39-7.77-7.49-11.02c-0.77-2.26-0.86-8.39-0.98-10.77c-0.1-1.96-0.54-4.7-3.43-7.25c1.08,3.18,1.16,8.05,0.69,9.4
			c-0.6,1.73-1.93,3.33-4.21,4.06c-1.76-1.84-1.76-8.89-0.66-8.45c1.81,0.72,1.89-2.8,0.66-3.01c-4.7-0.79-1.52,17.43-6.24,18
			c0.51-1.54-3.01-10.5-8.01-11.53c4.55,4.63,2.69,11.52,2.2,15.43c-0.87,6.97-9.6,21.94-10.04,25.12
			c-0.44,3.18-0.54,13.61-1.96,15.03c0,0.04,0,0.08-0.01,0.12c0-0.04,0-0.08-0.01-0.12c-1.42-1.42-1.52-11.85-1.96-15.03
			c-0.44-3.18-9.17-18.15-10.04-25.12c-0.49-3.9-2.35-10.8,2.2-15.43c-4.99,1.03-8.52,9.99-8.01,11.53
			c-4.73-0.57-1.55-18.79-6.24-18c-1.23,0.21-1.14,3.73,0.66,3.01c1.1-0.44,1.1,6.61-0.66,8.45c-2.28-0.73-3.61-2.34-4.21-4.06
			c-0.47-1.35-0.39-6.22,0.69-9.4c-2.89,2.55-3.33,5.29-3.43,7.25c-0.12,2.38-0.21,8.51-0.98,10.77
			c-1.11,3.25-5.44,10.14-7.49,11.02c-2.06,0.88-3.95,0.15-3.95,0.15s-0.01,2.8,1.91,2.8c6.3-0.01,12.18-11.1,14.02-12.79
			c0.76-0.69,9.91,6.39,12.26,12.34c-4.19-4.55-5.36-4.39-7.86-4.11c-1.98,0.22-10.14,4.92-10.94,11.46c-0.25,2-0.52,7.12,1.32,7.93
			c0.83,0.37,1.55,0.25,2.33-0.56c0.59-0.61,0.59-2.96-1.27-2.67c-2.04,0.32,1.41-5.66,3.76-7.75c2.12-1.89,7.03-3.67,7.64-1.65
			c1.51,4.95-3.29,6.46-4.76,5.34c0.78,4.6,6.95,3.62,6.86,13.03c-0.01,0.96-1.91-0.7-2.23,1.1c-0.18,0.98,0.5,2.37,2.45,2.28
			c1.08-0.05,1.48-0.94,1.69-1.62c0.65-2.07-0.26-9.18-2.5-12.3c1.43-0.4,3.2-3.41,2.94-5.07c1.18,1.23,4.84,7.33,5.29,10.17
			c0.73,4.7,0.44,9.84-7.64,17.78c1.76,1.47,9.26-1.4,11.4-13.52c3.07,4.26,6.56,22.5,4.69,20.79c-1.76-1.62-3.99-0.29-4.35,1.69
			c-0.36,1.98,1.27,3.97,3.21,3.97c1.94,0,2.77-2.06,3.21-3.09c0,0,0-0.12,0.01-0.34c0,0.22,0.01,0.34,0.01,0.34
			c0.45,1.02,1.27,3.09,3.21,3.09c1.94,0,3.57-1.98,3.21-3.97c-0.36-1.98-2.58-3.31-4.35-1.69c-1.86,1.71,1.62-16.53,4.69-20.79
			c2.14,12.12,9.63,14.98,11.4,13.52c-8.08-7.93-8.37-13.07-7.64-17.78c0.44-2.84,4.11-8.94,5.29-10.17
			c-0.26,1.65,1.51,4.66,2.94,5.07c-2.24,3.12-3.15,10.23-2.5,12.3c0.21,0.67,0.61,1.57,1.69,1.62c1.96,0.09,2.63-1.29,2.45-2.28
			c-0.32-1.8-2.22-0.14-2.23-1.1c-0.1-9.4,6.07-8.42,6.86-13.03c-1.47,1.13-6.27-0.39-4.76-5.34c0.61-2.01,5.52-0.23,7.64,1.65
			c2.35,2.09,5.8,8.07,3.76,7.75c-1.86-0.29-1.86,2.06-1.27,2.67c0.78,0.81,1.49,0.93,2.33,0.56c1.84-0.81,1.57-5.94,1.32-7.93
			c-0.81-6.54-8.96-11.24-10.94-11.46c-2.5-0.28-3.67-0.44-7.86,4.11c2.35-5.95,11.51-13.03,12.26-12.34
			c1.84,1.69,7.72,12.78,14.02,12.79c1.93,0,1.91-2.8,1.91-2.8S191.55,167.63,189.49,166.75z"/>
	</g>
</g>
</svg>
